<svg xmlns="http://www.w3.org/2000/svg" viewBox="0 0 1024 1024" role="img" aria-labelledby="title desc">
  <title id="title">Ryu App Icon</title>
  <desc id="desc">Rounded square icon with a stylized open book glyph.</desc>
  <defs>
    <linearGradient id="bg" x1="0" y1="0" x2="1" y2="1">
      <stop offset="0%" stop-color="#6f6de8"/>
      <stop offset="100%" stop-color="#3f49c9"/>
    </linearGradient>
    <linearGradient id="paper" x1="0" y1="0" x2="0" y2="1">
      <stop offset="0%" stop-color="#ffffff"/>
      <stop offset="100%" stop-color="#e7e8ff"/>
    </linearGradient>
  </defs>
  <rect x="64" y="64" width="896" height="896" rx="220" fill="url(#bg)"/>
  <path d="M286 322c70-29 141-42 214-42 72 0 143 13 213 42v393c-65-27-132-40-203-40-72 0-146 13-224 40V322z" fill="url(#paper)"/>
  <path d="M512 280c72 0 143 13 213 42v393c-65-27-132-40-203-40-3 0-7 0-10 0V280z" fill="#f3f4ff"/>
  <path d="M286 322c70-29 141-42 214-42m0 0c72 0 143 13 213 42" fill="none" stroke="#d9dbff" stroke-width="22" stroke-linecap="round"/>
  <path d="M512 328v381" stroke="#c6c9ff" stroke-width="18" stroke-linecap="round"/>
</svg>
